<svg xmlns="http://www.w3.org/2000/svg" height="48" viewBox="0 -960 960 960" width="48"><path d="M334-252h25v-83h83v-25h-83v-82h-25v82h-82v25h82v83Zm205-32h168v-25H539v25Zm0-102h168v-25H539v25Zm26-163 57-58 58 58 18-19-58-56 58-58-18-18-57.5 57-57.5-57-19 18 58 58-58 56 19 19Zm-302-63h167v-25H263v25Zm-37.236 440q-22.008 0-37.886-15.878Q172-203.756 172-225.764v-508.472q0-22.008 15.878-37.886Q203.756-788 225.764-788h508.472q22.008 0 37.886 15.878Q788-756.244 788-734.236v508.472q0 22.008-15.878 37.886Q756.244-172 734.236-172H225.764Z"/></svg>